{"title":"Avatar.2009.DvDRip.Dual Audio.Hindi+Eng.XviD@Mastitorrents","uid":5516260,"size":1658442315,"categoryP":"video","categoryS":"movies","magnet":"?xt=urn:btih:9b5fcb8f3ed968a5680389b4165b07ec28648b9f&amp;dn=Avatar.2009.DvDRip.Dual+Audio.Hindi%2BEng.XviD%40Mastitorrents&amp;tr=udp%3A%2F%2Ftracker.openbittorrent.com%3A80&amp;tr=udp%3A%2F%2Fopen.demonii.com%3A1337&amp;tr=udp%3A%2F%2Ftracker.coppersurfer.tk%3A6969&amp;tr=udp%3A%2F%2Fexodus.desync.com%3A6969","seeders":1,"leechers":0,"uploader":"amanrulz","files":3,"time":1272264525,"description":"mastitorrents.com &lt;a href=&quot;\nhttp://mastitorrents.com/forums/index.php&quot; rel=&quot;nofollow&quot; target=&quot;_NEW&quot;&gt;\nhttp://mastitorrents.com/forums/index.php&lt;/a&gt;\n\n\nGeneral\nFormat : AVI\nFormat/Info : Audio Video Interleave\nFormat profile : OpenDML\nFile size : 1.53 GiB\nDuration : 2h 35mn\nOverall bit rate : 1 415 Kbps\nSource : My Owan Collection\nReleased/Encoded By : -=![Postarbhai]!=-\n\nVideo\nFormat : MPEG-4 Visual\nFormat profile : Advanced Simple@L5\nFormat settings, BVOP : Yes\nFormat settings, QPel : No\nFormat settings, GMC : No warppoints\nFormat settings, Matrix : Default (H.263)\nCodec ID/Hint : XviD\nDuration : 2h 35mn\nBit rate : 832 Kbps\nWidth : 720 pixels\nHeight : 400 pixels\nDisplay aspect ratio : 16:9\nFrame rate : 20.000 fps\nResolution : 8 bits\nColorimetry : 4:2:0\nScan type : Progressive\nBits/(Pixel*Frame) : 0.144\nStream size : 923 MiB (59%)\n\nAudio#HINDI\nFormat : AC-3\nFormat/Info : Audio Coding 3\nCodec ID : 2000\nDuration : 2h 35mn\nBit rate mode : Constant\nBit rate : 320 Kbps\nChannel(s) : 6 channels\nChannel positions : Front: L C R, Side: L R, LFE\nSampling rate : 48.0 KHz\nStream size : 355 MiB (23%)\nAlignment : Aligned on interleaves\nInterleave, duration : 64 ms (1.28 video frame)\nInterleave, preload duration : 192 ms\n\nAudio#ENGLISH\nFormat : AC-3\nFormat/Info : Audio Coding 3\nCodec ID : 2000\nDuration : 2h 35mn\nBit rate mode : Constant\nBit rate : 256 Kbps\nChannel(s) : 6 channels\nChannel positions : Front: L C R, Side: L R, LFE\nSampling rate : 48.0 KHz\nStream size : 284 MiB (18%)\nAlignment : Aligned on interleaves\nInterleave, duration : 64 ms (1.28 video frame)\nInterleave, preload duration : 192 ms","torrent":{"xt":"urn:btih:9b5fcb8f3ed968a5680389b4165b07ec28648b9f","amp;dn":"Avatar.2009.DvDRip.Dual+Audio.Hindi%2BEng.XviD%40Mastitorrents","amp;tr":["udp%3A%2F%2Ftracker.openbittorrent.com%3A80","udp%3A%2F%2Fopen.demonii.com%3A1337","udp%3A%2F%2Ftracker.coppersurfer.tk%3A6969","udp%3A%2F%2Fexodus.desync.com%3A6969"],"infoHash":"9b5fcb8f3ed968a5680389b4165b07ec28648b9f","infoHashBuffer":{"type":"Buffer","data":[155,95,203,143,62,217,104,165,104,3,137,180,22,91,7,236,40,100,139,159]},"announce":[],"urlList":[]}}